<svg xmlns="http://www.w3.org/2000/svg" viewBox="0 0 520 430" shape-rendering="crispEdges" role="img" aria-label="Pixel-art portrait of Francesco de Lorenzi"><rect x="0" y="0" width="520" height="430" fill="#000000"/><rect x="250" y="100" width="40" height="10" fill="#14151d"/><rect x="300" y="100" width="10" height="10" fill="#14151d"/><rect x="240" y="110" width="60" height="10" fill="#14151d"/><rect x="300" y="110" width="10" height="10" fill="#885d48"/><rect x="310" y="110" width="10" height="10" fill="#14151d"/><rect x="230" y="120" width="100" height="10" fill="#14151d"/><rect x="210" y="130" width="130" height="10" fill="#14151d"/><rect x="210" y="140" width="40" height="10" fill="#14151d"/><rect x="250" y="140" width="50" height="10" fill="#885d48"/><rect x="300" y="140" width="40" height="10" fill="#14151d"/><rect x="200" y="150" width="30" height="10" fill="#14151d"/><rect x="230" y="150" width="80" height="10" fill="#885d48"/><rect x="310" y="150" width="30" height="10" fill="#14151d"/><rect x="200" y="160" width="30" height="10" fill="#14151d"/><rect x="230" y="160" width="90" height="10" fill="#885d48"/><rect x="320" y="160" width="30" height="10" fill="#14151d"/><rect x="200" y="170" width="20" height="10" fill="#14151d"/><rect x="220" y="170" width="100" height="10" fill="#885d48"/><rect x="320" y="170" width="30" height="10" fill="#14151d"/><rect x="210" y="180" width="10" height="10" fill="#14151d"/><rect x="220" y="180" width="110" height="10" fill="#885d48"/><rect x="330" y="180" width="20" height="10" fill="#14151d"/><rect x="210" y="190" width="10" height="10" fill="#14151d"/><rect x="220" y="190" width="110" height="10" fill="#885d48"/><rect x="330" y="190" width="20" height="10" fill="#14151d"/><rect x="210" y="200" width="10" height="10" fill="#14151d"/><rect x="220" y="200" width="130" height="10" fill="#885d48"/><rect x="210" y="210" width="140" height="10" fill="#885d48"/><rect x="210" y="220" width="140" height="10" fill="#885d48"/><rect x="210" y="230" width="50" height="10" fill="#885d48"/><rect x="260" y="230" width="10" height="10" fill="#14151d"/><rect x="270" y="230" width="10" height="10" fill="#885d48"/><rect x="280" y="230" width="10" height="10" fill="#14151d"/><rect x="290" y="230" width="50" height="10" fill="#885d48"/><rect x="340" y="230" width="10" height="10" fill="#14151d"/><rect x="210" y="240" width="10" height="10" fill="#885d48"/><rect x="220" y="240" width="10" height="10" fill="#14151d"/><rect x="230" y="240" width="20" height="10" fill="#885d48"/><rect x="250" y="240" width="10" height="10" fill="#14151d"/><rect x="260" y="240" width="30" height="10" fill="#885d48"/><rect x="290" y="240" width="10" height="10" fill="#14151d"/><rect x="300" y="240" width="20" height="10" fill="#885d48"/><rect x="320" y="240" width="20" height="10" fill="#14151d"/><rect x="220" y="250" width="30" height="10" fill="#14151d"/><rect x="250" y="250" width="50" height="10" fill="#885d48"/><rect x="300" y="250" width="40" height="10" fill="#14151d"/><rect x="220" y="260" width="30" height="10" fill="#14151d"/><rect x="250" y="260" width="50" height="10" fill="#885d48"/><rect x="300" y="260" width="30" height="10" fill="#14151d"/><rect x="230" y="270" width="100" height="10" fill="#14151d"/><rect x="230" y="280" width="10" height="10" fill="#885d48"/><rect x="240" y="280" width="70" height="10" fill="#14151d"/><rect x="310" y="280" width="20" height="10" fill="#885d48"/><rect x="220" y="290" width="10" height="10" fill="#14151d"/><rect x="230" y="290" width="20" height="10" fill="#885d48"/><rect x="250" y="290" width="50" height="10" fill="#14151d"/><rect x="300" y="290" width="20" height="10" fill="#885d48"/><rect x="320" y="290" width="20" height="10" fill="#14151d"/><rect x="200" y="300" width="30" height="10" fill="#14151d"/><rect x="230" y="300" width="90" height="10" fill="#885d48"/><rect x="320" y="300" width="50" height="10" fill="#14151d"/><rect x="180" y="310" width="50" height="10" fill="#14151d"/><rect x="230" y="310" width="90" height="10" fill="#885d48"/><rect x="320" y="310" width="80" height="10" fill="#14151d"/><rect x="170" y="320" width="60" height="10" fill="#14151d"/><rect x="230" y="320" width="90" height="10" fill="#885d48"/><rect x="320" y="320" width="100" height="10" fill="#14151d"/><rect x="150" y="330" width="90" height="10" fill="#14151d"/><rect x="240" y="330" width="80" height="10" fill="#885d48"/><rect x="320" y="330" width="110" height="10" fill="#14151d"/><rect x="130" y="340" width="110" height="10" fill="#14151d"/><rect x="240" y="340" width="70" height="10" fill="#885d48"/><rect x="310" y="340" width="130" height="10" fill="#14151d"/><rect x="120" y="350" width="130" height="10" fill="#14151d"/><rect x="250" y="350" width="50" height="10" fill="#885d48"/><rect x="300" y="350" width="140" height="10" fill="#14151d"/><rect x="110" y="360" width="140" height="10" fill="#14151d"/><rect x="250" y="360" width="50" height="10" fill="#885d48"/><rect x="300" y="360" width="150" height="10" fill="#14151d"/><rect x="110" y="370" width="150" height="10" fill="#14151d"/><rect x="260" y="370" width="30" height="10" fill="#885d48"/><rect x="290" y="370" width="160" height="10" fill="#14151d"/><rect x="110" y="380" width="160" height="10" fill="#14151d"/><rect x="270" y="380" width="20" height="10" fill="#885d48"/><rect x="290" y="380" width="160" height="10" fill="#14151d"/></svg>